<?xml version="1.0" encoding="UTF-8" standalone="no"?>
<svg
   xmlns:dc="http://purl.org/dc/elements/1.1/"
   xmlns:cc="http://creativecommons.org/ns#"
   xmlns:rdf="http://www.w3.org/1999/02/22-rdf-syntax-ns#"
   xmlns:svg="http://www.w3.org/2000/svg"
   xmlns="http://www.w3.org/2000/svg"
   xmlns:sodipodi="http://sodipodi.sourceforge.net/DTD/sodipodi-0.dtd"
   xmlns:inkscape="http://www.inkscape.org/namespaces/inkscape"
   version="1.1"
   x="0px"
   y="0px"
   width="300px" 
   height="300px"
   viewBox="0 0 100 100"
   enable-background="new 0 0 100 100"
   xml:space="preserve"
   id="svg2"
   inkscape:version="0.91 r13725"
   sodipodi:docname="w_pawn.svg"><metadata
     id="metadata34"><rdf:RDF><cc:Work
         rdf:about=""><dc:format>image/svg+xml</dc:format><dc:type
           rdf:resource="http://purl.org/dc/dcmitype/StillImage" /></cc:Work></rdf:RDF></metadata><defs
     id="defs32" /><sodipodi:namedview
     pagecolor="#ffffff"
     bordercolor="#666666"
     borderopacity="1"
     objecttolerance="10"
     gridtolerance="10"
     guidetolerance="10"
     inkscape:pageopacity="0"
     inkscape:pageshadow="2"
     inkscape:window-width="1491"
     inkscape:window-height="841"
     id="namedview30"
     showgrid="false"
     inkscape:zoom="2.36"
     inkscape:cx="50"
     inkscape:cy="50"
     inkscape:window-x="0"
     inkscape:window-y="0"
     inkscape:window-maximized="0"
     inkscape:current-layer="svg2" /><g
     display="none"
     id="g4"><g
       display="inline"
       id="g6"><path
         fill="#000000"
         stroke="#E00C02"
         stroke-width="4"
         stroke-miterlimit="10"
         d="M73,89c0,2.2-1.8,4-4,4H31c-2.2,0-4-1.8-4-4l0,0    c0-2.2,1.8-4,4-4h38C71.2,85,73,86.8,73,89L73,89z"
         id="path8" /></g><path
       display="inline"
       fill="#000000"
       stroke="#E00C02"
       stroke-width="4"
       stroke-miterlimit="10"
       d="M65,85c0-13-7,0-7-44H42   c0,44-7,31-7,44H65z"
       id="path10" /><circle
       display="inline"
       fill="#000000"
       stroke="#E00C02"
       stroke-width="4"
       stroke-miterlimit="10"
       cx="50"
       cy="22"
       r="13"
       id="circle12" /><g
       display="inline"
       id="g14"><path
         fill="#000000"
         d="M63,38c0,1.65-1.35,3-3,3H40c-1.65,0-3-1.35-3-3l0,0c0-1.65,1.35-3,3-3h20C61.65,35,63,36.35,63,38L63,38z    "
         id="path16" /><path
         fill="#000000"
         stroke="#E00C02"
         stroke-width="4"
         stroke-miterlimit="10"
         d="M63,38c0,1.65-1.35,3-3,3H40c-1.65,0-3-1.35-3-3    l0,0c0-1.65,1.35-3,3-3h20C61.65,35,63,36.35,63,38L63,38z"
         id="path18" /></g><g
       display="inline"
       id="g20"><path
         fill="#000000"
         d="M68,82c0,1.65-1.35,3-3,3H35c-1.65,0-3-1.35-3-3l0,0c0-1.65,1.35-3,3-3h30C66.65,79,68,80.35,68,82L68,82z    "
         id="path22" /><path
         fill="#000000"
         stroke="#E00C02"
         stroke-width="4"
         stroke-miterlimit="10"
         d="M68,82c0,1.65-1.35,3-3,3H35c-1.65,0-3-1.35-3-3    l0,0c0-1.65,1.35-3,3-3h30C66.65,79,68,80.35,68,82L68,82z"
         id="path24" /></g></g><g
     id="g26"><path
       d="M69.878,83.072C69.954,82.726,70,82.369,70,82c0-2.695-2.148-4.885-4.82-4.982c-0.16-0.265-0.323-0.524-0.489-0.783   c-1.822-2.842-4.552-7.112-4.685-33.235C62.76,42.996,65,40.755,65,38c0-2.707-2.166-4.905-4.853-4.985   C63.122,30.272,65,26.356,65,22c0-8.271-6.729-15-15-15s-15,6.729-15,15c0,4.356,1.878,8.272,4.853,11.015   C37.166,33.095,35,35.293,35,38c0,2.755,2.24,4.996,4.994,5c-0.133,26.124-2.862,30.394-4.685,33.235   c-0.166,0.259-0.329,0.519-0.489,0.783C32.148,77.115,30,79.305,30,82c0,0.369,0.046,0.726,0.122,1.072   C27.229,83.499,25,85.99,25,89c0,3.309,2.691,6,6,6h38c3.309,0,6-2.691,6-6C75,85.99,72.771,83.499,69.878,83.072z M34,82   c0-0.542,0.458-1,1-1h30c0.542,0,1,0.458,1,1s-0.458,1-1,1H35C34.458,83,34,82.542,34,82z M39.535,77   c2.042-3.56,4.339-10.124,4.46-34h12.01c0.121,23.876,2.418,30.44,4.46,34H39.535z M39,22c0-6.065,4.935-11,11-11s11,4.935,11,11   s-4.935,11-11,11S39,28.065,39,22z M39,38c0-0.542,0.458-1,1-1h20c0.542,0,1,0.458,1,1s-0.458,1-1,1H40C39.458,39,39,38.542,39,38z    M69,91H31c-1.103,0-2-0.897-2-2s0.897-2,2-2h38c1.103,0,2,0.897,2,2S70.103,91,69,91z"
       id="path28" /></g><path
     style="fill:#f4eed7"
     d="m 47.922601,32.579464 c -5.011623,-1.008262 -8.587725,-5.43626 -8.585159,-10.630311 0.003,-5.989774 4.561636,-10.567636 10.535439,-10.579776 7.448778,-0.01514 12.467539,6.839456 10.301357,14.069528 -0.650747,2.172001 -3.706514,5.561279 -5.742994,6.369795 -2.132825,0.846767 -4.6495,1.144795 -6.508643,0.770764 z"
     id="path3362"
     inkscape:connector-curvature="0" /><path
     style="fill:#f4eed7"
     d="m 39.284196,38.481914 c -0.694249,-1.123318 0.623689,-1.278524 10.856626,-1.278524 9.866393,0 10.589423,0.05127 10.456684,0.741525 -0.130502,0.678612 -1.029391,0.751136 -10.594748,0.854796 -6.751987,0.07317 -10.546461,-0.03933 -10.718562,-0.317797 z"
     id="path3364"
     inkscape:connector-curvature="0" /><path
     style="fill:#f4eed7"
     d="m 40.545419,75.349481 c 1.803324,-3.487245 3.00885,-11.964204 3.454031,-24.287883 l 0.286318,-7.926005 5.865591,0 5.86559,0 0.0014,6.038136 c 0.0025,10.195747 1.220637,20.407524 2.989715,25.061974 0.45209,1.189431 0.822072,2.210272 0.82219,2.268534 1.17e-4,0.05826 -4.485615,0.105932 -9.968295,0.105932 l -9.968509,0 0.651928,-1.260688 z"
     id="path3366"
     inkscape:connector-curvature="0" /><path
     style="fill:#f4eed7"
     d="m 29.60452,90.310734 c -0.460402,-0.460401 -0.322108,-2.050773 0.225988,-2.59887 0.381001,-0.381 5.482245,-0.508474 20.348068,-0.508474 l 19.839593,0 0.476942,1.046774 c 0.36469,0.800404 0.350339,1.19932 -0.06097,1.694915 -0.468871,0.564954 -3.105441,0.648141 -20.542524,0.648141 -11.002537,0 -20.131732,-0.127118 -20.287099,-0.282486 z"
     id="path3368"
     inkscape:connector-curvature="0" /><path
     style="fill:#f4eed7"
     d="m 34.694471,82.688822 c -0.15823,-0.158231 -0.287691,-0.541929 -0.287691,-0.852664 0,-0.46065 2.900658,-0.564972 15.709035,-0.564972 14.732863,0 15.700168,0.04608 15.566335,0.741526 -0.132283,0.68739 -1.258132,0.749639 -15.421344,0.852663 -8.403254,0.06113 -15.408104,-0.01832 -15.566335,-0.176553 z"
     id="path3370"
     inkscape:connector-curvature="0" /></svg>