<?xml version="1.0" encoding="UTF-8" standalone="no"?>
<svg
   xmlns:dc="http://purl.org/dc/elements/1.1/"
   xmlns:cc="http://creativecommons.org/ns#"
   xmlns:rdf="http://www.w3.org/1999/02/22-rdf-syntax-ns#"
   xmlns:svg="http://www.w3.org/2000/svg"
   xmlns="http://www.w3.org/2000/svg"
   xmlns:sodipodi="http://sodipodi.sourceforge.net/DTD/sodipodi-0.dtd"
   xmlns:inkscape="http://www.inkscape.org/namespaces/inkscape"
   version="1.1"
   x="0px"
   y="0px"
   viewBox="0 0 100 100"
   enable-background="new 0 0 100 100"
   xml:space="preserve"
   id="svg2"
   inkscape:version="0.91 r13725"
   sodipodi:docname="w_queen.svg"><metadata
     id="metadata40"><rdf:RDF><cc:Work
         rdf:about=""><dc:format>image/svg+xml</dc:format><dc:type
           rdf:resource="http://purl.org/dc/dcmitype/StillImage" /></cc:Work></rdf:RDF></metadata><defs
     id="defs38" /><sodipodi:namedview
     pagecolor="#ffffff"
     bordercolor="#666666"
     borderopacity="1"
     objecttolerance="10"
     gridtolerance="10"
     guidetolerance="10"
     inkscape:pageopacity="0"
     inkscape:pageshadow="2"
     inkscape:window-width="1680"
     inkscape:window-height="988"
     id="namedview36"
     showgrid="false"
     inkscape:zoom="2.36"
     inkscape:cx="50"
     inkscape:cy="50"
     inkscape:window-x="-8"
     inkscape:window-y="-8"
     inkscape:window-maximized="1"
     inkscape:current-layer="svg2" /><g
     display="none"
     id="g4"><g
       display="inline"
       id="g6"><path
         fill="#000000"
         stroke="#E00C02"
         stroke-width="4"
         stroke-miterlimit="10"
         d="M73,89c0,2.2-1.8,4-4,4H31c-2.2,0-4-1.8-4-4l0,0    c0-2.2,1.8-4,4-4h38C71.2,85,73,86.8,73,89L73,89z"
         id="path8" /></g><path
       display="inline"
       fill="#000000"
       stroke="#E00C02"
       stroke-width="4"
       stroke-miterlimit="10"
       d="M63,85c0-13-4-8-4-52H41   c0,44-4,39-4,52H63z"
       id="path10" /><g
       display="inline"
       id="g12"><path
         fill="#000000"
         d="M63,36c0,1.65-1.35,3-3,3H40c-1.65,0-3-1.35-3-3l0,0c0-1.65,1.35-3,3-3h20C61.65,33,63,34.35,63,36L63,36z    "
         id="path14" /><path
         fill="#000000"
         stroke="#E00C02"
         stroke-width="4"
         stroke-miterlimit="10"
         d="M63,36c0,1.65-1.35,3-3,3H40c-1.65,0-3-1.35-3-3    l0,0c0-1.65,1.35-3,3-3h20C61.65,33,63,34.35,63,36L63,36z"
         id="path16" /></g><g
       display="inline"
       id="g18"><path
         fill="#000000"
         d="M68,82c0,1.65-1.35,3-3,3H35c-1.65,0-3-1.35-3-3l0,0c0-1.65,1.35-3,3-3h30C66.65,79,68,80.35,68,82L68,82z    "
         id="path20" /><path
         fill="#000000"
         stroke="#E00C02"
         stroke-width="4"
         stroke-miterlimit="10"
         d="M68,82c0,1.65-1.35,3-3,3H35c-1.65,0-3-1.35-3-3    l0,0c0-1.65,1.35-3,3-3h30C66.65,79,68,80.35,68,82L68,82z"
         id="path22" /></g><polyline
       display="inline"
       fill="#000000"
       stroke="#E00C02"
       stroke-width="4"
       stroke-miterlimit="10"
       points="34,15 41,33 59,33    66,15  "
       id="polyline24" /><path
       display="inline"
       fill="#000000"
       stroke="#E00C02"
       stroke-width="4"
       stroke-miterlimit="10"
       d="M36,20c0-1.657,6.268-3,14-3   s14,1.343,14,3"
       id="path26" /><circle
       display="inline"
       fill="#000000"
       stroke="#E00C02"
       stroke-width="4"
       stroke-miterlimit="10"
       cx="50"
       cy="13"
       r="4"
       id="circle28" /><line
       display="inline"
       fill="#000000"
       stroke="#E00C02"
       stroke-width="4"
       stroke-miterlimit="10"
       x1="37"
       y1="23"
       x2="63"
       y2="23"
       id="line30" /></g><g
     id="g32"><path
       d="M69.878,83.072C69.954,82.726,70,82.369,70,82c0-2.757-2.243-5-5-5h-0.701c-0.146-0.783-0.308-1.559-0.48-2.377   c-1.07-5.061-2.495-11.818-2.771-33.738C63.303,40.402,65,38.397,65,36c0-2.125-1.338-3.932-3.211-4.655l6.075-15.62l-3.729-1.45   l-0.981,2.523c-2.042-0.88-4.895-1.338-7.588-1.571C55.844,14.538,56,13.787,56,13c0-3.309-2.691-6-6-6s-6,2.691-6,6   c0,0.787,0.156,1.538,0.434,2.227c-2.693,0.232-5.546,0.691-7.588,1.571l-0.981-2.523l-3.729,1.45l6.075,15.62   C36.338,32.068,35,33.875,35,36c0,2.397,1.697,4.402,3.952,4.885c-0.275,21.92-1.7,28.677-2.771,33.738   c-0.173,0.818-0.334,1.594-0.48,2.377H35c-2.757,0-5,2.243-5,5c0,0.369,0.046,0.726,0.122,1.072C27.229,83.499,25,85.99,25,89   c0,3.309,2.691,6,6,6h38c3.309,0,6-2.691,6-6C75,85.99,72.771,83.499,69.878,83.072z M40,37c-0.542,0-1-0.458-1-1s0.458-1,1-1h20   c0.542,0,1,0.458,1,1s-0.458,1-1,1H40z M42.368,31l-2.333-6h19.93l-2.333,6H42.368z M48,13c0-1.103,0.897-2,2-2s2,0.897,2,2   s-0.897,2-2,2S48,14.103,48,13z M50,19c6.18,0,10.222,0.844,11.723,1.48L61.521,21H38.479l-0.202-0.52   C39.778,19.844,43.82,19,50,19z M40.096,75.451C41.198,70.234,42.667,63.267,42.95,41h14.1c0.283,22.267,1.752,29.234,2.854,34.451   c0.114,0.54,0.22,1.046,0.32,1.549H39.775C39.876,76.497,39.981,75.99,40.096,75.451z M35,81h30c0.542,0,1,0.458,1,1s-0.458,1-1,1   H35c-0.542,0-1-0.458-1-1S34.458,81,35,81z M69,91H31c-1.103,0-2-0.897-2-2s0.897-2,2-2h38c1.103,0,2,0.897,2,2S70.103,91,69,91z"
       id="path34" /></g><path
     style="fill:#f4eed7"
     d="m 41.402233,27.944915 -1.060349,-2.648305 4.829058,-0.119379 c 2.655982,-0.06566 7.002134,-0.06566 9.658116,0 l 4.829059,0.119379 -1.06035,2.648305 -1.06035,2.648305 -7.537417,0 -7.537417,0 -1.06035,-2.648305 z"
     id="path3368"
     inkscape:connector-curvature="0" /><path
     style="fill:#f4eed7"
     d="m 39.26231,20.42478 c 2.910421,-1.173772 11.758852,-1.59316 17.313363,-0.820599 6.592264,0.9169 5.085051,1.189559 -6.575673,1.189559 -7.033169,0 -11.289871,-0.146265 -10.73769,-0.36896 z"
     id="path3370"
     inkscape:connector-curvature="0" /><path
     style="fill:#f4eed7"
     d="m 49.04661,14.457585 c -1.848749,-1.076798 -0.08829,-3.943197 1.800848,-2.932161 1.092834,0.584867 1.109705,2.372205 0.02786,2.951193 -0.975438,0.522039 -0.898365,0.522841 -1.828704,-0.01903 z"
     id="path3372"
     inkscape:connector-curvature="0" /><path
     style="fill:#f4eed7"
     d="M 39.696622,36.674023 C 39.537209,36.51461 39.40678,36.129944 39.40678,35.819209 c 0,-0.455788 2.053201,-0.564972 10.624289,-0.564972 9.890207,0 10.614438,0.05124 10.481698,0.741526 -0.130359,0.677905 -1.017014,0.751245 -10.334448,0.854814 -5.60552,0.06231 -10.322284,-0.01714 -10.481697,-0.176554 z"
     id="path3374"
     inkscape:connector-curvature="0" /><path
     style="fill:#f4eed7"
     d="m 40.254237,76.398039 c 0,-0.209892 0.368678,-2.545697 0.819284,-5.190678 0.883052,-5.183365 1.517601,-12.747949 1.958459,-23.347192 l 0.277583,-6.673728 6.686779,0 6.686779,0 0.277273,6.885593 c 0.410578,10.195963 1.052159,17.734397 1.969001,23.135327 0.449002,2.644981 0.816368,4.980786 0.816368,5.190678 0,0.215282 -4.247953,0.381622 -9.745763,0.381622 -5.49781,0 -9.745763,-0.16634 -9.745763,-0.381622 z"
     id="path3376"
     inkscape:connector-curvature="0" /><path
     style="fill:#f4eed7"
     d="m 40.360169,90.86905 c 5.301907,-0.06724 13.977755,-0.06724 19.279662,0 5.301906,0.06724 0.963983,0.12225 -9.639831,0.12225 -10.603814,0 -14.941737,-0.05501 -9.639831,-0.12225 z"
     id="path3378"
     inkscape:connector-curvature="0" /><path
     style="fill:#f4eed7"
     d="m 34.4027,81.970339 c 0.132891,-0.69005 1.21562,-0.741525 15.5973,-0.741525 14.38168,0 15.464409,0.05147 15.5973,0.741525 0.133936,0.69547 -0.834808,0.741525 -15.5973,0.741525 -14.762492,0 -15.731236,-0.04606 -15.5973,-0.741525 z"
     id="path3380"
     inkscape:connector-curvature="0" /><path
     style="fill:#f4eed7"
     d="m 29.749856,90.25833 c -0.681068,-0.681068 -0.650115,-1.82007 0.0656,-2.414064 0.416615,-0.345759 6.116567,-0.449057 20.398822,-0.369679 18.345879,0.101962 19.855448,0.165333 20.288306,0.851684 0.341053,0.540784 0.341053,0.942267 -1e-6,1.483051 -0.432904,0.686421 -1.945462,0.749702 -20.35391,0.851551 -15.114048,0.08362 -20.009256,-0.01298 -20.39882,-0.402543 z"
     id="path3382"
     inkscape:connector-curvature="0" /></svg>