<?xml version="1.0" encoding="UTF-8" standalone="no"?>
<svg
   xmlns:dc="http://purl.org/dc/elements/1.1/"
   xmlns:cc="http://creativecommons.org/ns#"
   xmlns:rdf="http://www.w3.org/1999/02/22-rdf-syntax-ns#"
   xmlns:svg="http://www.w3.org/2000/svg"
   xmlns="http://www.w3.org/2000/svg"
   xmlns:sodipodi="http://sodipodi.sourceforge.net/DTD/sodipodi-0.dtd"
   xmlns:inkscape="http://www.inkscape.org/namespaces/inkscape"
   version="1.1"
   x="0px"
   y="0px"
   viewBox="0 0 100 100"
   enable-background="new 0 0 100 100"
   xml:space="preserve"
   id="svg2"
   inkscape:version="0.91 r13725"
   sodipodi:docname="w_rook.svg"><metadata
     id="metadata40"><rdf:RDF><cc:Work
         rdf:about=""><dc:format>image/svg+xml</dc:format><dc:type
           rdf:resource="http://purl.org/dc/dcmitype/StillImage" /></cc:Work></rdf:RDF></metadata><defs
     id="defs38" /><sodipodi:namedview
     pagecolor="#ffffff"
     bordercolor="#666666"
     borderopacity="1"
     objecttolerance="10"
     gridtolerance="10"
     guidetolerance="10"
     inkscape:pageopacity="0"
     inkscape:pageshadow="2"
     inkscape:window-width="1120"
     inkscape:window-height="763"
     id="namedview36"
     showgrid="false"
     inkscape:zoom="2.36"
     inkscape:cx="50"
     inkscape:cy="50"
     inkscape:window-x="0"
     inkscape:window-y="0"
     inkscape:window-maximized="0"
     inkscape:current-layer="svg2" /><g
     display="none"
     id="g4"><g
       display="inline"
       id="g6"><path
         fill="#000000"
         stroke="#E00C02"
         stroke-width="4"
         stroke-miterlimit="10"
         d="M77,89c0,2.2-1.8,4-4,4H27c-2.2,0-4-1.8-4-4l0,0    c0-2.2,1.8-4,4-4h46C75.2,85,77,86.8,77,89L77,89z"
         id="path8" /></g><path
       display="inline"
       fill="#000000"
       stroke="#E00C02"
       stroke-width="4"
       stroke-miterlimit="10"
       d="M69,85c0-13-7-6-7-50H38   c0,44-7,37-7,50H69z"
       id="path10" /><rect
       x="38"
       y="29"
       display="inline"
       fill="#000000"
       stroke="#E00C02"
       stroke-width="4"
       stroke-miterlimit="10"
       width="24"
       height="6"
       id="rect12" /><g
       display="inline"
       id="g14"><path
         fill="#000000"
         d="M67,32c0,1.65-1.35,3-3,3H36c-1.65,0-3-1.35-3-3l0,0c0-1.65,1.35-3,3-3h28C65.65,29,67,30.35,67,32L67,32z    "
         id="path16" /><path
         fill="#000000"
         stroke="#E00C02"
         stroke-width="4"
         stroke-miterlimit="10"
         d="M67,32c0,1.65-1.35,3-3,3H36c-1.65,0-3-1.35-3-3    l0,0c0-1.65,1.35-3,3-3h28C65.65,29,67,30.35,67,32L67,32z"
         id="path18" /></g><g
       display="inline"
       id="g20"><path
         fill="#000000"
         d="M72,82c0,1.65-1.35,3-3,3H31c-1.65,0-3-1.35-3-3l0,0c0-1.65,1.35-3,3-3h38C70.65,79,72,80.35,72,82L72,82z    "
         id="path22" /><path
         fill="#000000"
         stroke="#E00C02"
         stroke-width="4"
         stroke-miterlimit="10"
         d="M72,82c0,1.65-1.35,3-3,3H31c-1.65,0-3-1.35-3-3    l0,0c0-1.65,1.35-3,3-3h38C70.65,79,72,80.35,72,82L72,82z"
         id="path24" /></g><g
       display="inline"
       id="g26"><path
         fill="#000000"
         stroke="#E00C02"
         stroke-width="4"
         stroke-miterlimit="10"
         d="M31,10v16c0,1.65,1.35,3,3,3h32c1.65,0,3-1.35,3-3    V10"
         id="path28" /></g><polyline
       display="inline"
       fill="#000000"
       stroke="#E00C02"
       stroke-width="4"
       stroke-miterlimit="10"
       points="69,16 69,10 62,10    62,16 56,16 56,10 44,10 44,16 38,16 38,10 31,10 31,16  "
       id="polyline30" /></g><g
     id="g32"><path
       d="M73.878,83.072C73.954,82.726,74,82.369,74,82c0-2.506-1.859-4.567-4.267-4.926c-0.271-0.754-0.567-1.482-0.878-2.233   c-2-4.832-4.718-11.416-4.849-37.842C66.76,36.996,69,34.755,69,32c0-0.629-0.13-1.226-0.343-1.781C70.06,29.333,71,27.778,71,26   V16v-6V8H60v6h-2V8H42v6h-2V8H29v2v6v10c0,1.778,0.94,3.333,2.343,4.219C31.13,30.774,31,31.371,31,32c0,2.755,2.24,4.996,4.994,5   c-0.131,26.426-2.85,33.01-4.849,37.842c-0.311,0.751-0.606,1.479-0.878,2.233C27.859,77.433,26,79.494,26,82   c0,0.369,0.046,0.726,0.122,1.072C23.229,83.499,21,85.99,21,89c0,3.309,2.691,6,6,6h46c3.309,0,6-2.691,6-6   C79,85.99,76.771,83.499,73.878,83.072z M30,82c0-0.542,0.458-1,1-1h38c0.542,0,1,0.458,1,1s-0.458,1-1,1H31   C30.458,83,30,82.542,30,82z M33,12h3v6h10v-6h8v6h10v-6h3v4v10c0,0.542-0.458,1-1,1H34c-0.542,0-1-0.458-1-1V16V12z M35,32   c0-0.542,0.458-1,1-1h28c0.542,0,1,0.458,1,1s-0.458,1-1,1H36C35.458,33,35,32.542,35,32z M39.995,37h20.01   c0.135,27.239,3.028,34.233,5.154,39.371c0.091,0.22,0.169,0.419,0.255,0.629H34.586c0.085-0.209,0.164-0.409,0.255-0.629   C36.967,71.233,39.86,64.239,39.995,37z M73,91H27c-1.103,0-2-0.897-2-2s0.897-2,2-2h46c1.103,0,2,0.897,2,2S74.103,91,73,91z"
       id="path34" /></g><path
     style="fill:#f4eed7"
     d="m 33.338183,26.502025 c -0.158034,-0.158035 -0.287336,-3.401742 -0.287336,-7.20824 l 0,-6.920904 1.251827,0 c 1.250604,0 1.251948,0.0028 1.377118,2.86017 l 0.125293,2.860169 5.190678,0.118974 5.190678,0.118975 0,-2.979144 0,-2.979144 3.813559,0 3.813559,0 0,2.979144 0,2.979144 5.190678,-0.118975 5.190678,-0.118974 0.125293,-2.860169 0.125292,-2.86017 1.262072,0 1.262071,0 -0.116177,7.097458 -0.116178,7.097458 -16.555884,0.110782 c -9.105737,0.06093 -16.685186,-0.01852 -16.843221,-0.176554 z"
     id="path3368"
     inkscape:connector-curvature="0" /><path
     style="fill:#fff6d5"
     d="m 34.004237,26.342728 c -0.93335,-0.375161 -0.95339,-0.5266 -0.95339,-7.204676 l 0,-6.821461 1.165255,0.134078 c 1.097819,0.126317 1.187512,0.2996 1.549856,2.994246 l 0.384603,2.86017 5.01794,0 5.01794,0 0,-2.966102 0,-2.966102 3.813559,0 3.813559,0 0,2.966102 0,2.966102 5.041741,0 5.041741,0 0.297874,-2.966102 c 0.295177,-2.939248 0.309262,-2.966102 1.555638,-2.966102 l 1.257764,0 -0.100648,6.935357 -0.100647,6.935356 -3.170832,0.268034 c -4.787302,0.404675 -28.541829,0.269276 -29.631953,-0.1689 z"
     id="path3370"
     inkscape:connector-curvature="0" /><path
     style="fill:#fff6d5"
     d="m 33.580508,26.501601 c -0.393436,-0.160662 -0.529661,-2.005374 -0.529661,-7.172505 l 0,-6.956215 1.034315,0 c 1.326041,0 1.45852,0.24919 1.783015,3.353784 l 0.269498,2.57842 5.024383,0 5.024383,0 0,-2.966102 0,-2.966102 3.813559,0 3.813559,0 0,2.966102 0,2.966102 5.084746,0 5.084746,0 0.0047,-1.377119 c 0.0026,-0.757415 0.122853,-2.092161 0.267306,-2.966102 0.232977,-1.409516 0.401109,-1.588983 1.488631,-1.588983 l 1.22599,0 -0.116177,7.097458 -0.116178,7.097458 -16.313559,0.07505 c -8.972458,0.04128 -16.551907,-0.02228 -16.843221,-0.141243 z"
     id="path3372"
     inkscape:connector-curvature="0" /><path
     style="fill:#fff6d5"
     d="m 35.352077,32.240761 c -0.160137,-0.259106 -0.02838,-0.637543 0.292789,-0.840969 0.76249,-0.482953 27.947778,-0.482953 28.710267,0 0.321172,0.203426 0.452927,0.581863 0.29279,0.840969 -0.410658,0.664458 -28.885188,0.664458 -29.295846,0 z"
     id="path3374"
     inkscape:connector-curvature="0" /><path
     style="fill:#fff6d5"
     d="m 35.169492,76.591906 c 0,-0.103266 0.560163,-1.867037 1.244808,-3.919492 2.083766,-6.246796 3.11104,-14.10399 3.659528,-27.990211 l 0.28871,-7.309322 9.632883,0 9.632883,0 0.291036,7.309322 c 0.560512,14.077185 1.553114,21.655037 3.66636,27.990211 0.684645,2.052455 1.244808,3.816226 1.244808,3.919492 0,0.103265 -6.673728,0.187755 -14.830508,0.187755 -8.15678,0 -14.830508,-0.08449 -14.830508,-0.187755 z"
     id="path3376"
     inkscape:connector-curvature="0" /><path
     style="fill:#fff6d5"
     d="M 26.016925,90.438427 C 25.302667,89.9614 25.072948,88.936752 25.495895,88.114407 25.85235,87.421342 27.453749,87.372881 50,87.372881 c 22.54625,0 24.147648,0.04846 24.504106,0.741526 0.422945,0.822345 0.193229,1.846993 -0.52103,2.32402 C 73.726708,90.609646 62.934322,90.749735 50,90.749735 c -12.934322,0 -23.726706,-0.140089 -23.983075,-0.311308 z"
     id="path3378"
     inkscape:connector-curvature="0" /><path
     style="fill:#fff6d5"
     d="m 30.370908,82.433055 c -0.153345,-0.153346 -0.06644,-0.534701 0.193126,-0.847458 0.696792,-0.839582 38.17514,-0.839582 38.871932,0 0.259565,0.312757 0.346471,0.694112 0.193126,0.847458 -0.364414,0.364414 -38.89377,0.364414 -39.258184,0 z"
     id="path3380"
     inkscape:connector-curvature="0" /></svg>