<svg xmlns="http://www.w3.org/2000/svg" xmlns:xlink="http://www.w3.org/1999/xlink" version="1.1" x="0px" y="0px" viewBox="0 0 100 100" enable-background="new 0 0 100 100" xml:space="preserve"><g display="none"><g display="inline"><path fill="#000000" d="M63,40c0,1.1-0.9,2-2,2H39c-1.1,0-2-0.9-2-2l0,0c0-1.1,0.9-2,2-2h22C62.1,38,63,38.9,63,40L63,40z"></path></g><g display="inline"><path fill="#000000" d="M68,82c0,1.1-0.9,2-2,2H34c-1.1,0-2-0.9-2-2l0,0c0-1.1,0.9-2,2-2h32C67.1,80,68,80.9,68,82L68,82z"></path></g><g display="inline"><path fill="#000000" d="M73,89c0,2.2-1.8,4-4,4H31c-2.2,0-4-1.8-4-4l0,0c0-2.2,1.8-4,4-4h38C71.2,85,73,86.8,73,89L73,89z"></path></g><path display="inline" fill="#000000" d="M62.578,79c-0.942-5.738-3.17-8.413-3.528-36h-18.1c-0.358,27.587-2.586,30.262-3.528,36   H62.578z"></path><path display="inline" fill="#000000" d="M50.504,7h-1.008c-0.871,2.015-2.776,4.506-4.842,7.072l4.24,8.48l-1.789,0.895   l-3.834-7.668C40.1,19.685,37,23.558,37,26c0,5,4,11,4,11h18c0,0,4-6,4-11C63,21.589,52.888,12.511,50.504,7z"></path></g><g><path d="M37,40c0-1.1,0.9-2,2-2h22c1.1,0,2,0.9,2,2s-0.9,2-2,2H39C37.9,42,37,41.1,37,40z M34,84h32c1.1,0,2-0.9,2-2s-0.9-2-2-2H34   c-1.1,0-2,0.9-2,2S32.9,84,34,84z M69,85H31c-2.2,0-4,1.8-4,4s1.8,4,4,4h38c2.2,0,4-1.8,4-4S71.2,85,69,85z M40.95,43   c-0.358,27.587-2.586,30.262-3.528,36h25.156c-0.942-5.738-3.17-8.413-3.528-36H40.95z M59,37c0,0,4-6,4-11   c0-4.411-10.112-13.489-12.496-19h-1.008c-0.871,2.015-2.776,4.506-4.842,7.072l4.24,8.48l-1.789,0.895l-3.834-7.668   C40.1,19.685,37,23.558,37,26c0,5,4,11,4,11H59z"></path></g></svg>