<svg xmlns="http://www.w3.org/2000/svg" xmlns:xlink="http://www.w3.org/1999/xlink" version="1.1" x="0px" y="0px" viewBox="0 0 100 100" enable-background="new 0 0 100 100" xml:space="preserve"><g display="none"><polygon display="inline" fill="#000000" points="62,10 62,16 56,16 56,10 44,10 44,16 38,16 38,10 31,10 31,21 34,26 40,26 42,26    58,26 60,26 66,26 69,21 69,10  "></polygon><g display="inline"><path fill="#000000" d="M69,17v8c0,2.2-1.8,4-4,4H35c-2.2,0-4-1.8-4-4v-8"></path></g><g display="inline"><path fill="#000000" d="M67,32c0,1.1-0.9,2-2,2H35c-1.1,0-2-0.9-2-2l0,0c0-1.1,0.9-2,2-2h30C66.1,30,67,30.9,67,32L67,32z"></path></g><g display="inline"><path fill="#000000" d="M72,82c0,1.1-0.9,2-2,2H30c-1.1,0-2-0.9-2-2l0,0c0-1.1,0.9-2,2-2h40C71.1,80,72,80.9,72,82L72,82z"></path></g><g display="inline"><path fill="#000000" d="M77,89c0,2.2-1.8,4-4,4H27c-2.2,0-4-1.8-4-4l0,0c0-2.2,1.8-4,4-4h46C75.2,85,77,86.8,77,89L77,89z"></path></g><path display="inline" fill="#000000" d="M68.262,79C66.464,72.751,62,70.139,62,35H38c0,35.139-4.464,37.751-6.262,44H68.262z"></path></g><g><path d="M31,25V10h7v6h6v-6h12v6h6v-6h7v15c0,2.2-1.8,4-4,4H35C32.8,29,31,27.2,31,25z M65,34c1.1,0,2-0.9,2-2s-0.9-2-2-2H35   c-1.1,0-2,0.9-2,2s0.9,2,2,2H65z M30,84h40c1.1,0,2-0.9,2-2s-0.9-2-2-2H30c-1.1,0-2,0.9-2,2S28.9,84,30,84z M73,85H27   c-2.2,0-4,1.8-4,4s1.8,4,4,4h46c2.2,0,4-1.8,4-4S75.2,85,73,85z M68.262,79C66.464,72.751,62,70.139,62,35H38   c0,35.139-4.464,37.751-6.262,44H68.262z"></path></g></svg>