<?xml version="1.0" encoding="UTF-8" standalone="no"?>
<svg
   xmlns:dc="http://purl.org/dc/elements/1.1/"
   xmlns:cc="http://creativecommons.org/ns#"
   xmlns:rdf="http://www.w3.org/1999/02/22-rdf-syntax-ns#"
   xmlns:svg="http://www.w3.org/2000/svg"
   xmlns="http://www.w3.org/2000/svg"
   xmlns:sodipodi="http://sodipodi.sourceforge.net/DTD/sodipodi-0.dtd"
   xmlns:inkscape="http://www.inkscape.org/namespaces/inkscape"
   version="1.1"
   x="0px"
   y="0px"
   viewBox="0 0 100 100"
   enable-background="new 0 0 100 100"
   xml:space="preserve"
   id="svg2"
   inkscape:version="0.91 r13725"
   sodipodi:docname="w_king.svg"><metadata
     id="metadata40"><rdf:RDF><cc:Work
         rdf:about=""><dc:format>image/svg+xml</dc:format><dc:type
           rdf:resource="http://purl.org/dc/dcmitype/StillImage" /></cc:Work></rdf:RDF></metadata><defs
     id="defs38" /><sodipodi:namedview
     pagecolor="#ffffff"
     bordercolor="#666666"
     borderopacity="1"
     objecttolerance="10"
     gridtolerance="10"
     guidetolerance="10"
     inkscape:pageopacity="0"
     inkscape:pageshadow="2"
     inkscape:window-width="1680"
     inkscape:window-height="988"
     id="namedview36"
     showgrid="false"
     inkscape:zoom="2.36"
     inkscape:cx="50"
     inkscape:cy="50"
     inkscape:window-x="-8"
     inkscape:window-y="-8"
     inkscape:window-maximized="1"
     inkscape:current-layer="svg2" /><g
     display="none"
     id="g4"><g
       display="inline"
       id="g6"><path
         fill="#000000"
         stroke="#E00C02"
         stroke-width="4"
         stroke-miterlimit="10"
         d="M73,89c0,2.2-1.8,4-4,4H31c-2.2,0-4-1.8-4-4l0,0    c0-2.2,1.8-4,4-4h38C71.2,85,73,86.8,73,89L73,89z"
         id="path8" /></g><path
       display="inline"
       fill="#000000"
       stroke="#E00C02"
       stroke-width="4"
       stroke-miterlimit="10"
       d="M63,85c0-13-4-8-4-52H41   c0,44-4,39-4,52H63z"
       id="path10" /><g
       display="inline"
       id="g12"><path
         fill="#000000"
         d="M63,36c0,1.65-1.35,3-3,3H40c-1.65,0-3-1.35-3-3l0,0c0-1.65,1.35-3,3-3h20C61.65,33,63,34.35,63,36L63,36z    "
         id="path14" /><path
         fill="#000000"
         stroke="#E00C02"
         stroke-width="4"
         stroke-miterlimit="10"
         d="M63,36c0,1.65-1.35,3-3,3H40c-1.65,0-3-1.35-3-3    l0,0c0-1.65,1.35-3,3-3h20C61.65,33,63,34.35,63,36L63,36z"
         id="path16" /></g><g
       display="inline"
       id="g18"><path
         fill="#000000"
         d="M68,82c0,1.65-1.35,3-3,3H35c-1.65,0-3-1.35-3-3l0,0c0-1.65,1.35-3,3-3h30C66.65,79,68,80.35,68,82L68,82z    "
         id="path20" /><path
         fill="#000000"
         stroke="#E00C02"
         stroke-width="4"
         stroke-miterlimit="10"
         d="M68,82c0,1.65-1.35,3-3,3H35c-1.65,0-3-1.35-3-3    l0,0c0-1.65,1.35-3,3-3h30C66.65,79,68,80.35,68,82L68,82z"
         id="path22" /></g><polygon
       display="inline"
       fill="#000000"
       stroke="#E00C02"
       stroke-width="4"
       stroke-miterlimit="10"
       points="63,20 59,33 41,33 37,20    50,15  "
       id="polygon24" /><line
       display="inline"
       fill="#000000"
       stroke="#E00C02"
       stroke-width="4"
       stroke-miterlimit="10"
       x1="50"
       y1="15"
       x2="50"
       y2="5"
       id="line26" /><line
       display="inline"
       fill="#000000"
       stroke="#E00C02"
       stroke-width="4"
       stroke-miterlimit="10"
       x1="46"
       y1="9"
       x2="54"
       y2="9"
       id="line28" /><line
       display="inline"
       fill="#000000"
       stroke="#E00C02"
       stroke-width="4"
       stroke-miterlimit="10"
       x1="38"
       y1="23"
       x2="62"
       y2="23"
       id="line30" /></g><g
     id="g32"><path
       d="M69.878,83.072C69.954,82.726,70,82.369,70,82c0-2.757-2.243-5-5-5h-0.701c-0.146-0.783-0.308-1.559-0.48-2.377   c-1.07-5.061-2.495-11.818-2.771-33.738C63.303,40.402,65,38.397,65,36c0-2.188-1.421-4.031-3.382-4.708l3.843-12.488L52,13.626V11   h2V7h-2V5h-4v2h-2v4h2v2.626l-13.461,5.178l3.843,12.488C36.421,31.969,35,33.813,35,36c0,2.397,1.697,4.402,3.952,4.885   c-0.275,21.92-1.7,28.677-2.771,33.738c-0.173,0.818-0.334,1.594-0.48,2.377H35c-2.757,0-5,2.243-5,5   c0,0.369,0.046,0.726,0.122,1.072C27.229,83.499,25,85.99,25,89c0,3.309,2.691,6,6,6h38c3.309,0,6-2.691,6-6   C75,85.99,72.771,83.499,69.878,83.072z M40,37c-0.542,0-1-0.458-1-1s0.458-1,1-1h20c0.542,0,1,0.458,1,1s-0.458,1-1,1H40z    M59.369,25l-1.847,6H42.478l-1.847-6H59.369z M39.972,21L50,17.143L60.028,21H39.972z M40.096,75.451   C41.198,70.234,42.667,63.267,42.95,41h14.1c0.283,22.267,1.752,29.234,2.854,34.451c0.114,0.54,0.22,1.046,0.32,1.549H39.775   C39.876,76.497,39.981,75.99,40.096,75.451z M35,81h30c0.542,0,1,0.458,1,1s-0.458,1-1,1H35c-0.542,0-1-0.458-1-1S34.458,81,35,81z    M69,91H31c-1.103,0-2-0.897-2-2s0.897-2,2-2h38c1.103,0,2,0.897,2,2S70.103,91,69,91z"
       id="path34" /></g><path
     style="fill:#f4eed7"
     d="m 41.793125,28.128981 c -0.380286,-1.355331 -0.69143,-2.594738 -0.69143,-2.754237 0,-0.159499 4.004237,-0.289998 8.898305,-0.289998 4.894068,0 8.898305,0.130499 8.898305,0.289998 0,0.159499 -0.311144,1.398906 -0.69143,2.754237 l -0.691431,2.464239 -7.515444,0 -7.515445,0 -0.69143,-2.464239 z"
     id="path3368"
     inkscape:connector-curvature="0" /><path
     style="fill:#f4eed7"
     d="m 45.66639,19.078888 4.352832,-1.714763 4.227677,1.601057 c 2.325223,0.880581 4.227677,1.664331 4.227677,1.741666 0,0.07733 -3.861229,0.128503 -8.580508,0.113706 l -8.580509,-0.0269 4.352831,-1.714762 z"
     id="path3370"
     inkscape:connector-curvature="0" /><path
     style="fill:#f4eed7"
     d="m 40.254237,76.398039 c 0,-0.209892 0.368678,-2.545697 0.819284,-5.190678 0.883052,-5.183365 1.517601,-12.747949 1.958459,-23.347192 l 0.277583,-6.673728 6.686779,0 6.686779,0 0.277273,6.885593 c 0.410578,10.195963 1.052159,17.734397 1.969001,23.135327 0.449002,2.644981 0.816368,4.980786 0.816368,5.190678 0,0.215282 -4.247953,0.381622 -9.745763,0.381622 -5.49781,0 -9.745763,-0.16634 -9.745763,-0.381622 z"
     id="path3372"
     inkscape:connector-curvature="0" /><path
     style="fill:#f4eed7"
     d="m 29.749856,90.25833 c -0.681068,-0.681068 -0.650115,-1.82007 0.0656,-2.414064 0.416615,-0.345759 6.116567,-0.449057 20.398822,-0.369679 18.345879,0.101962 19.855448,0.165333 20.288306,0.851684 0.341053,0.540784 0.341053,0.942267 -1e-6,1.483051 -0.432904,0.686421 -1.945462,0.749702 -20.35391,0.851551 -15.114048,0.08362 -20.009256,-0.01298 -20.39882,-0.402543 z"
     id="path3374"
     inkscape:connector-curvature="0" /><path
     style="fill:#f4eed7"
     d="m 34.4027,81.970339 c 0.132891,-0.69005 1.21562,-0.741525 15.5973,-0.741525 14.38168,0 15.464409,0.05147 15.5973,0.741525 0.133936,0.69547 -0.834808,0.741525 -15.5973,0.741525 -14.762492,0 -15.731236,-0.04606 -15.5973,-0.741525 z"
     id="path3376"
     inkscape:connector-curvature="0" /><path
     style="fill:#f4eed7"
     d="M 39.696622,36.674023 C 39.537209,36.51461 39.40678,36.129944 39.40678,35.819209 c 0,-0.455788 2.053201,-0.564972 10.624289,-0.564972 9.890207,0 10.614438,0.05124 10.481698,0.741526 -0.130359,0.677905 -1.017014,0.751245 -10.334448,0.854814 -5.60552,0.06231 -10.322284,-0.01714 -10.481697,-0.176554 z"
     id="path3378"
     inkscape:connector-curvature="0" /></svg>