<svg xmlns="http://www.w3.org/2000/svg" xmlns:xlink="http://www.w3.org/1999/xlink" version="1.1" x="0px" y="0px" viewBox="0 0 100 100" enable-background="new 0 0 100 100" xml:space="preserve"><g display="none"><g display="inline"><path fill="#000000" stroke="#E00C02" stroke-width="4" stroke-miterlimit="10" d="M73,89c0,2.2-1.8,4-4,4H31c-2.2,0-4-1.8-4-4l0,0    c0-2.2,1.8-4,4-4h38C71.2,85,73,86.8,73,89L73,89z"></path></g><path display="inline" fill="#000000" stroke="#E00C02" stroke-width="4" stroke-miterlimit="10" d="M63,85c0-13-4-8-4-52H41   c0,44-4,39-4,52H63z"></path><g display="inline"><path fill="#000000" d="M63,36c0,1.65-1.35,3-3,3H40c-1.65,0-3-1.35-3-3l0,0c0-1.65,1.35-3,3-3h20C61.65,33,63,34.35,63,36L63,36z    "></path><path fill="#000000" stroke="#E00C02" stroke-width="4" stroke-miterlimit="10" d="M63,36c0,1.65-1.35,3-3,3H40c-1.65,0-3-1.35-3-3    l0,0c0-1.65,1.35-3,3-3h20C61.65,33,63,34.35,63,36L63,36z"></path></g><g display="inline"><path fill="#000000" d="M68,82c0,1.65-1.35,3-3,3H35c-1.65,0-3-1.35-3-3l0,0c0-1.65,1.35-3,3-3h30C66.65,79,68,80.35,68,82L68,82z    "></path><path fill="#000000" stroke="#E00C02" stroke-width="4" stroke-miterlimit="10" d="M68,82c0,1.65-1.35,3-3,3H35c-1.65,0-3-1.35-3-3    l0,0c0-1.65,1.35-3,3-3h30C66.65,79,68,80.35,68,82L68,82z"></path></g><polygon display="inline" fill="#000000" stroke="#E00C02" stroke-width="4" stroke-miterlimit="10" points="63,20 59,33 41,33 37,20    50,15  "></polygon><line display="inline" fill="#000000" stroke="#E00C02" stroke-width="4" stroke-miterlimit="10" x1="50" y1="15" x2="50" y2="5"></line><line display="inline" fill="#000000" stroke="#E00C02" stroke-width="4" stroke-miterlimit="10" x1="46" y1="9" x2="54" y2="9"></line><line display="inline" fill="#000000" stroke="#E00C02" stroke-width="4" stroke-miterlimit="10" x1="38" y1="23" x2="62" y2="23"></line></g><g><path d="M69.878,83.072C69.954,82.726,70,82.369,70,82c0-2.757-2.243-5-5-5h-0.701c-0.146-0.783-0.308-1.559-0.48-2.377   c-1.07-5.061-2.495-11.818-2.771-33.738C63.303,40.402,65,38.397,65,36c0-2.188-1.421-4.031-3.382-4.708l3.843-12.488L52,13.626V11   h2V7h-2V5h-4v2h-2v4h2v2.626l-13.461,5.178l3.843,12.488C36.421,31.969,35,33.813,35,36c0,2.397,1.697,4.402,3.952,4.885   c-0.275,21.92-1.7,28.677-2.771,33.738c-0.173,0.818-0.334,1.594-0.48,2.377H35c-2.757,0-5,2.243-5,5   c0,0.369,0.046,0.726,0.122,1.072C27.229,83.499,25,85.99,25,89c0,3.309,2.691,6,6,6h38c3.309,0,6-2.691,6-6   C75,85.99,72.771,83.499,69.878,83.072z M40,37c-0.542,0-1-0.458-1-1s0.458-1,1-1h20c0.542,0,1,0.458,1,1s-0.458,1-1,1H40z    M59.369,25l-1.847,6H42.478l-1.847-6H59.369z M39.972,21L50,17.143L60.028,21H39.972z M40.096,75.451   C41.198,70.234,42.667,63.267,42.95,41h14.1c0.283,22.267,1.752,29.234,2.854,34.451c0.114,0.54,0.22,1.046,0.32,1.549H39.775   C39.876,76.497,39.981,75.99,40.096,75.451z M35,81h30c0.542,0,1,0.458,1,1s-0.458,1-1,1H35c-0.542,0-1-0.458-1-1S34.458,81,35,81z    M69,91H31c-1.103,0-2-0.897-2-2s0.897-2,2-2h38c1.103,0,2,0.897,2,2S70.103,91,69,91z"></path></g></svg>