<svg xmlns="http://www.w3.org/2000/svg" xmlns:xlink="http://www.w3.org/1999/xlink" version="1.1" x="0px" y="0px" viewBox="0 0 100 100" enable-background="new 0 0 100 100" xml:space="preserve"><g display="none"><g display="inline"><path fill="#000000" stroke="#E00C02" stroke-width="4" stroke-miterlimit="10" d="M73,89c0,2.2-1.8,4-4,4H31c-2.2,0-4-1.8-4-4l0,0    c0-2.2,1.8-4,4-4h38C71.2,85,73,86.8,73,89L73,89z"></path></g><path display="inline" fill="#000000" stroke="#E00C02" stroke-width="4" stroke-miterlimit="10" d="M65,85c0-13-7,0-7-44H42   c0,44-7,31-7,44H65z"></path><circle display="inline" fill="#000000" stroke="#E00C02" stroke-width="4" stroke-miterlimit="10" cx="50" cy="22" r="13"></circle><g display="inline"><path fill="#000000" d="M63,38c0,1.65-1.35,3-3,3H40c-1.65,0-3-1.35-3-3l0,0c0-1.65,1.35-3,3-3h20C61.65,35,63,36.35,63,38L63,38z    "></path><path fill="#000000" stroke="#E00C02" stroke-width="4" stroke-miterlimit="10" d="M63,38c0,1.65-1.35,3-3,3H40c-1.65,0-3-1.35-3-3    l0,0c0-1.65,1.35-3,3-3h20C61.65,35,63,36.35,63,38L63,38z"></path></g><g display="inline"><path fill="#000000" d="M68,82c0,1.65-1.35,3-3,3H35c-1.65,0-3-1.35-3-3l0,0c0-1.65,1.35-3,3-3h30C66.65,79,68,80.35,68,82L68,82z    "></path><path fill="#000000" stroke="#E00C02" stroke-width="4" stroke-miterlimit="10" d="M68,82c0,1.65-1.35,3-3,3H35c-1.65,0-3-1.35-3-3    l0,0c0-1.65,1.35-3,3-3h30C66.65,79,68,80.35,68,82L68,82z"></path></g></g><g><path d="M69.878,83.072C69.954,82.726,70,82.369,70,82c0-2.695-2.148-4.885-4.82-4.982c-0.16-0.265-0.323-0.524-0.489-0.783   c-1.822-2.842-4.552-7.112-4.685-33.235C62.76,42.996,65,40.755,65,38c0-2.707-2.166-4.905-4.853-4.985   C63.122,30.272,65,26.356,65,22c0-8.271-6.729-15-15-15s-15,6.729-15,15c0,4.356,1.878,8.272,4.853,11.015   C37.166,33.095,35,35.293,35,38c0,2.755,2.24,4.996,4.994,5c-0.133,26.124-2.862,30.394-4.685,33.235   c-0.166,0.259-0.329,0.519-0.489,0.783C32.148,77.115,30,79.305,30,82c0,0.369,0.046,0.726,0.122,1.072   C27.229,83.499,25,85.99,25,89c0,3.309,2.691,6,6,6h38c3.309,0,6-2.691,6-6C75,85.99,72.771,83.499,69.878,83.072z M34,82   c0-0.542,0.458-1,1-1h30c0.542,0,1,0.458,1,1s-0.458,1-1,1H35C34.458,83,34,82.542,34,82z M39.535,77   c2.042-3.56,4.339-10.124,4.46-34h12.01c0.121,23.876,2.418,30.44,4.46,34H39.535z M39,22c0-6.065,4.935-11,11-11s11,4.935,11,11   s-4.935,11-11,11S39,28.065,39,22z M39,38c0-0.542,0.458-1,1-1h20c0.542,0,1,0.458,1,1s-0.458,1-1,1H40C39.458,39,39,38.542,39,38z    M69,91H31c-1.103,0-2-0.897-2-2s0.897-2,2-2h38c1.103,0,2,0.897,2,2S70.103,91,69,91z"></path></g></svg>