<svg xmlns="http://www.w3.org/2000/svg" xmlns:xlink="http://www.w3.org/1999/xlink" version="1.1" x="0px" y="0px" 
   width="300px" 
   height="300px"
viewBox="0 0 100 100" enable-background="new 0 0 100 100" xml:space="preserve"><g display="none"><g display="inline"><path fill="#000000" d="M63,36c0,1.1-0.9,2-2,2H39c-1.1,0-2-0.9-2-2l0,0c0-1.1,0.9-2,2-2h22C62.1,34,63,34.9,63,36L63,36z"></path></g><g display="inline"><path fill="#000000" d="M68,82c0,1.1-0.9,2-2,2H34c-1.1,0-2-0.9-2-2l0,0c0-1.1,0.9-2,2-2h32C67.1,80,68,80.9,68,82L68,82z"></path></g><g display="inline"><path fill="#000000" d="M73,89c0,2.2-1.8,4-4,4H31c-2.2,0-4-1.8-4-4l0,0c0-2.2,1.8-4,4-4h38C71.2,85,73,86.8,73,89L73,89z"></path></g><line display="inline" fill="#000000" stroke="#E00C02" stroke-width="4" stroke-miterlimit="10" x1="50" y1="18" x2="50" y2="5"></line><line display="inline" fill="#000000" stroke="#E00C02" stroke-width="4" stroke-miterlimit="10" x1="46" y1="9" x2="54" y2="9"></line><g display="inline"><polygon fill="#000000" points="62.385,22 63,20 50,15 37,20 37.615,22   "></polygon><polygon fill="#000000" points="37.923,23 41,33 59,33 62.077,23   "></polygon></g><path display="inline" fill="#000000" d="M62.61,79c-0.946-6.487-3.306-10.059-3.583-40H40.973   c-0.277,29.941-2.637,33.513-3.583,40H62.61z"></path></g><g><path d="M37,36c0-1.1,0.9-2,2-2h22c1.1,0,2,0.9,2,2s-0.9,2-2,2H39C37.9,38,37,37.1,37,36z M34,84h32c1.1,0,2-0.9,2-2s-0.9-2-2-2H34   c-1.1,0-2,0.9-2,2S32.9,84,34,84z M69,85H31c-2.2,0-4,1.8-4,4s1.8,4,4,4h38c2.2,0,4-1.8,4-4S71.2,85,69,85z M37,20l0.615,2h24.77   L63,20l-11-4.231V11h2V7h-2V5h-4v2h-2v4h2v4.769L37,20z M59,33l3.077-10H37.923L41,33H59z M40.973,39   c-0.277,29.941-2.637,33.513-3.583,40H62.61c-0.946-6.487-3.306-10.059-3.583-40H40.973z"></path></g></svg>