<svg xmlns="http://www.w3.org/2000/svg" xmlns:xlink="http://www.w3.org/1999/xlink" version="1.1" x="0px" y="0px"
   width="300px" 
   height="300px"
 viewBox="0 0 100 100" enable-background="new 0 0 100 100" xml:space="preserve"><g display="none"><g display="inline"><path fill="#000000" d="M63,38c0,1.1-0.9,2-2,2H39c-1.1,0-2-0.9-2-2l0,0c0-1.1,0.9-2,2-2h22C62.1,36,63,36.9,63,38L63,38z"></path></g><g display="inline"><path fill="#000000" d="M68,82c0,1.1-0.9,2-2,2H34c-1.1,0-2-0.9-2-2l0,0c0-1.1,0.9-2,2-2h32C67.1,80,68,80.9,68,82L68,82z"></path></g><g display="inline"><path fill="#000000" d="M73,89c0,2.2-1.8,4-4,4H31c-2.2,0-4-1.8-4-4l0,0c0-2.2,1.8-4,4-4h38C71.2,85,73,86.8,73,89L73,89z"></path></g><circle display="inline" fill="#000000" cx="50" cy="22" r="13"></circle><path display="inline" fill="#000000" d="M63.99,79C62.052,74.959,58,74.478,58,41H42c0,33.478-4.052,33.959-5.99,38H63.99z"></path></g><g><path d="M37,38c0-1.1,0.9-2,2-2h22c1.1,0,2,0.9,2,2s-0.9,2-2,2H39C37.9,40,37,39.1,37,38z M34,84h32c1.1,0,2-0.9,2-2s-0.9-2-2-2H34   c-1.1,0-2,0.9-2,2S32.9,84,34,84z M69,85H31c-2.2,0-4,1.8-4,4s1.8,4,4,4h38c2.2,0,4-1.8,4-4S71.2,85,69,85z M50,35   c7.18,0,13-5.82,13-13S57.18,9,50,9s-13,5.82-13,13S42.82,35,50,35z M58,41H42c0,33.478-4.052,33.959-5.99,38H63.99   C62.052,74.959,58,74.478,58,41z"></path></g></svg>