<svg xmlns="http://www.w3.org/2000/svg" xmlns:xlink="http://www.w3.org/1999/xlink" version="1.1" x="0px" y="0px" 
   width="300px" 
   height="300px"
   viewBox="0 0 100 100" enable-background="new 0 0 100 100" xml:space="preserve"><g display="none"><path display="inline" fill="#000000" d="M36,19c0-1.657,6.268-3,14-3s14,1.343,14,3"></path><circle display="inline" fill="#000000" cx="50" cy="13" r="4"></circle><rect x="36" y="19" display="inline" fill="#000000" width="28" height="3"></rect><rect x="37" y="23" display="inline" fill="#000000" width="26" height="2"></rect><g display="inline"><path fill="#000000" d="M63,36c0,1.1-0.9,2-2,2H39c-1.1,0-2-0.9-2-2l0,0c0-1.1,0.9-2,2-2h22C62.1,34,63,34.9,63,36L63,36z"></path></g><polygon display="inline" fill="#000000" points="60,32 40,32 39,25 61,25  "></polygon><g display="inline"><path fill="#000000" d="M68,82c0,1.1-0.9,2-2,2H34c-1.1,0-2-0.9-2-2l0,0c0-1.1,0.9-2,2-2h32C67.1,80,68,80.9,68,82L68,82z"></path></g><g display="inline"><path fill="#000000" d="M73,89c0,2.2-1.8,4-4,4H31c-2.2,0-4-1.8-4-4l0,0c0-2.2,1.8-4,4-4h38C71.2,85,73,86.8,73,89L73,89z"></path></g><path display="inline" fill="#000000" d="M62.61,79c-0.946-6.487-3.306-10.059-3.583-40H40.973   c-0.277,29.941-2.637,33.513-3.583,40H62.61z"></path><polyline display="inline" fill="#000000" stroke="#E00C02" stroke-width="4" stroke-miterlimit="10" points="34,15 40.223,31    59.777,31 66,15  "></polyline><rect x="32" y="22" display="inline" fill="#000000" width="36" height="1"></rect></g><g><path d="M63,36c0,1.1-0.9,2-2,2H39c-1.1,0-2-0.9-2-2s0.9-2,2-2h22C62.1,34,63,34.9,63,36z M34,84h32c1.1,0,2-0.9,2-2s-0.9-2-2-2H34   c-1.1,0-2,0.9-2,2S32.9,84,34,84z M69,85H31c-2.2,0-4,1.8-4,4s1.8,4,4,4h38c2.2,0,4-1.8,4-4S71.2,85,69,85z M40.973,39   c-0.277,29.941-2.637,33.513-3.583,40H62.61c-0.946-6.487-3.306-10.059-3.583-40H40.973z M34.965,23l3.89,10h22.291l3.89-10H34.965   z M65.424,22l2.44-6.275l-3.729-1.45l-1.361,3.501c-1.851-0.886-5.641-1.543-10.218-1.724C53.432,15.318,54,14.231,54,13   c0-2.208-1.791-4-4-4s-4,1.792-4,4c0,1.231,0.568,2.318,1.443,3.052c-4.577,0.181-8.367,0.838-10.218,1.724l-1.361-3.501   l-3.729,1.45L34.576,22H65.424z"></path></g></svg>