<?xml version="1.0" encoding="UTF-8" standalone="no"?>
<svg
   xmlns:dc="http://purl.org/dc/elements/1.1/"
   xmlns:cc="http://creativecommons.org/ns#"
   xmlns:rdf="http://www.w3.org/1999/02/22-rdf-syntax-ns#"
   xmlns:svg="http://www.w3.org/2000/svg"
   xmlns="http://www.w3.org/2000/svg"
   xmlns:sodipodi="http://sodipodi.sourceforge.net/DTD/sodipodi-0.dtd"
   xmlns:inkscape="http://www.inkscape.org/namespaces/inkscape"
   version="1.1"
   x="0px"
   y="0px"
   width="300px" 
   height="300px"
   viewBox="0 0 100 100"
   enable-background="new 0 0 100 100"
   xml:space="preserve"
   id="svg2"
   inkscape:version="0.91 r13725"
   sodipodi:docname="w_bishops.svg"><metadata
     id="metadata36"><rdf:RDF><cc:Work
         rdf:about=""><dc:format>image/svg+xml</dc:format><dc:type
           rdf:resource="http://purl.org/dc/dcmitype/StillImage" /></cc:Work></rdf:RDF></metadata><defs
     id="defs34" /><sodipodi:namedview
     pagecolor="#ffffff"
     bordercolor="#666666"
     borderopacity="1"
     objecttolerance="10"
     gridtolerance="10"
     guidetolerance="10"
     inkscape:pageopacity="0"
     inkscape:pageshadow="2"
     inkscape:window-width="1680"
     inkscape:window-height="988"
     id="namedview32"
     showgrid="false"
     inkscape:zoom="2.36"
     inkscape:cx="50"
     inkscape:cy="50"
     inkscape:window-x="-8"
     inkscape:window-y="-8"
     inkscape:window-maximized="1"
     inkscape:current-layer="svg2" /><g
     display="none"
     id="g4"><g
       display="inline"
       id="g6"><path
         fill="#000000"
         stroke="#E00C02"
         stroke-width="4"
         stroke-miterlimit="10"
         d="M73,89c0,2.2-1.8,4-4,4H31c-2.2,0-4-1.8-4-4l0,0    c0-2.2,1.8-4,4-4h38C71.2,85,73,86.8,73,89L73,89z"
         id="path8" /></g><path
       display="inline"
       fill="#000000"
       stroke="#E00C02"
       stroke-width="4"
       stroke-miterlimit="10"
       d="M63,85c0-13-4-6-4-50H41   c0,44-4,37-4,50H63z"
       id="path10" /><g
       display="inline"
       id="g12"><path
         fill="#000000"
         d="M63,40c0,1.65-1.35,3-3,3H40c-1.65,0-3-1.35-3-3l0,0c0-1.65,1.35-3,3-3h20C61.65,37,63,38.35,63,40L63,40z    "
         id="path14" /><path
         fill="#000000"
         stroke="#E00C02"
         stroke-width="4"
         stroke-miterlimit="10"
         d="M63,40c0,1.65-1.35,3-3,3H40c-1.65,0-3-1.35-3-3    l0,0c0-1.65,1.35-3,3-3h20C61.65,37,63,38.35,63,40L63,40z"
         id="path16" /></g><g
       display="inline"
       id="g18"><path
         fill="#000000"
         d="M68,82c0,1.65-1.35,3-3,3H35c-1.65,0-3-1.35-3-3l0,0c0-1.65,1.35-3,3-3h30C66.65,79,68,80.35,68,82L68,82z    "
         id="path20" /><path
         fill="#000000"
         stroke="#E00C02"
         stroke-width="4"
         stroke-miterlimit="10"
         d="M68,82c0,1.65-1.35,3-3,3H35c-1.65,0-3-1.35-3-3    l0,0c0-1.65,1.35-3,3-3h30C66.65,79,68,80.35,68,82L68,82z"
         id="path22" /></g><path
       display="inline"
       fill="#000000"
       stroke="#E00C02"
       stroke-width="4"
       stroke-miterlimit="10"
       d="M50,5c0,5-13,16-13,21   s4,11,4,11h18c0,0,4-6,4-11S50,10,50,5z"
       id="path24" /><line
       display="inline"
       fill="#000000"
       stroke="#E00C02"
       stroke-width="4"
       stroke-miterlimit="10"
       x1="48"
       y1="23"
       x2="44"
       y2="15"
       id="line26" /></g><g
     id="g28"><path
       d="M69.878,83.072C69.954,82.726,70,82.369,70,82c0-2.757-2.243-5-5-5h-0.769c-0.131-0.612-0.273-1.218-0.424-1.854   c-1.032-4.367-2.397-10.149-2.73-30.27C63.316,44.381,65,42.386,65,40c0-1.977-1.163-3.674-2.832-4.485   C63.422,33.113,65,29.415,65,26c0-3.21-3.22-7.173-6.948-11.761C55.498,11.095,52,6.79,52,5h-4c0,1.79-3.498,6.095-6.052,9.239   C38.22,18.827,35,22.79,35,26c0,3.415,1.578,7.113,2.832,9.515C36.163,36.326,35,38.023,35,40c0,2.386,1.684,4.381,3.923,4.876   c-0.333,20.121-1.698,25.903-2.73,30.27c-0.15,0.636-0.293,1.242-0.424,1.854H35c-2.757,0-5,2.243-5,5   c0,0.369,0.046,0.726,0.122,1.072C27.229,83.499,25,85.99,25,89c0,3.309,2.691,6,6,6h38c3.309,0,6-2.691,6-6   C75,85.99,72.771,83.499,69.878,83.072z M40,41c-0.542,0-1-0.458-1-1s0.458-1,1-1h20c0.542,0,1,0.458,1,1s-0.458,1-1,1H40z    M43.565,18.603l2.646,5.292l3.578-1.789l-3.461-6.921c1.406-1.747,2.687-3.397,3.672-4.938c1.277,1.998,3.047,4.175,4.948,6.516   C57.502,19.905,61,24.21,61,26c0,3.285-2.095,7.257-3.117,9H42.117C41.095,33.257,39,29.285,39,26   C39,24.541,41.323,21.412,43.565,18.603z M40.085,76.066c1.072-4.537,2.49-10.549,2.836-31.066h14.158   c0.346,20.517,1.764,26.53,2.836,31.066c0.076,0.323,0.145,0.626,0.216,0.934H39.869C39.94,76.692,40.009,76.39,40.085,76.066z    M35,81h30c0.542,0,1,0.458,1,1s-0.458,1-1,1H35c-0.542,0-1-0.458-1-1S34.458,81,35,81z M69,91H31c-1.103,0-2-0.897-2-2   s0.897-2,2-2h38c1.103,0,2,0.897,2,2S70.103,91,69,91z"
       id="path30" /></g><path
     style="fill:#f4eed7"
     d="M 40.717507,31.681999 C 38.611936,26.624188 38.904817,24.9424 42.747022,20.028091 l 0.806258,-1.031231 1.324888,2.624587 1.324888,2.624589 1.79254,-0.903917 c 0.985897,-0.497153 1.852258,-0.956085 1.925246,-1.019849 0.07299,-0.06376 -0.649917,-1.672497 -1.606459,-3.574964 l -1.739167,-3.459031 1.536616,-2.09329 c 0.845139,-1.15131 1.678212,-2.09329 1.851273,-2.09329 0.328315,0 7.577124,9.164115 9.515302,12.029469 1.523003,2.251571 1.470383,4.548208 -0.195915,8.550835 l -1.310727,3.148509 -7.971765,0 -7.971765,0 -1.310728,-3.148509 z"
     id="path3364"
     inkscape:connector-curvature="0" /><path
     style="fill:#f4eed7"
     d="m 44.809322,40.869915 c 2.854873,-0.07331 7.526483,-0.07331 10.381356,0 2.854873,0.07331 0.519068,0.133287 -5.190678,0.133287 -5.709746,0 -8.045551,-0.05998 -5.190678,-0.133287 z"
     id="path3366"
     inkscape:connector-curvature="0" /><path
     style="fill:#f4eed7"
     d="m 40.445393,75.402542 c 1.316672,-6.103299 1.777473,-10.671273 2.607398,-25.847457 L 43.30189,45 50,45 l 6.69811,0 0.243718,4.555085 c 0.788762,14.74197 1.292907,19.729326 2.612779,25.847457 l 0.297088,1.377119 -9.851695,0 -9.851695,0 0.297088,-1.377119 z"
     id="path3368"
     inkscape:connector-curvature="0" /><path
     style="fill:#f4eed7"
     d="M 39.487445,40.021186 C 39.61881,39.339062 40.460935,39.279661 50,39.279661 c 9.539065,0 10.381189,0.0594 10.512555,0.741525 0.132948,0.690342 -0.592678,0.741526 -10.512555,0.741526 -9.919877,0 -10.645502,-0.05118 -10.512555,-0.741526 z"
     id="path3370"
     inkscape:connector-curvature="0" /><path
     style="fill:#f4eed7"
     d="m 34.4027,81.970339 c 0.132891,-0.69005 1.21562,-0.741525 15.5973,-0.741525 14.38168,0 15.464409,0.05147 15.5973,0.741525 0.133936,0.69547 -0.834808,0.741525 -15.5973,0.741525 -14.762492,0 -15.731236,-0.04606 -15.5973,-0.741525 z"
     id="path3372"
     inkscape:connector-curvature="0" /><path
     style="fill:#f4eed7"
     d="m 29.749856,90.25833 c -0.681068,-0.681068 -0.650115,-1.82007 0.0656,-2.414064 0.416615,-0.345759 6.116567,-0.449057 20.398822,-0.369679 18.345879,0.101962 19.855448,0.165333 20.288306,0.851684 0.341053,0.540784 0.341053,0.942267 -1e-6,1.483051 -0.432904,0.686421 -1.945462,0.749702 -20.35391,0.851551 -15.114048,0.08362 -20.009256,-0.01298 -20.39882,-0.402543 z"
     id="path3374"
     inkscape:connector-curvature="0" /></svg>