<?xml version="1.0" encoding="UTF-8" standalone="no"?>
<svg
   xmlns:dc="http://purl.org/dc/elements/1.1/"
   xmlns:cc="http://creativecommons.org/ns#"
   xmlns:rdf="http://www.w3.org/1999/02/22-rdf-syntax-ns#"
   xmlns:svg="http://www.w3.org/2000/svg"
   xmlns="http://www.w3.org/2000/svg"
   xmlns:sodipodi="http://sodipodi.sourceforge.net/DTD/sodipodi-0.dtd"
   xmlns:inkscape="http://www.inkscape.org/namespaces/inkscape"
   version="1.1"
   x="0px"
   y="0px"
   width="300px" 
   height="300px"
   viewBox="0 0 100 100"
   enable-background="new 0 0 100 100"
   xml:space="preserve"
   id="svg2"
   inkscape:version="0.91 r13725"
   sodipodi:docname="w_knight.svg"><metadata
     id="metadata42"><rdf:RDF><cc:Work
         rdf:about=""><dc:format>image/svg+xml</dc:format><dc:type
           rdf:resource="http://purl.org/dc/dcmitype/StillImage" /></cc:Work></rdf:RDF></metadata><defs
     id="defs40" /><sodipodi:namedview
     pagecolor="#ffffff"
     bordercolor="#666666"
     borderopacity="1"
     objecttolerance="10"
     gridtolerance="10"
     guidetolerance="10"
     inkscape:pageopacity="0"
     inkscape:pageshadow="2"
     inkscape:window-width="1680"
     inkscape:window-height="988"
     id="namedview38"
     showgrid="false"
     inkscape:zoom="2.36"
     inkscape:cx="50"
     inkscape:cy="50"
     inkscape:window-x="-8"
     inkscape:window-y="-8"
     inkscape:window-maximized="1"
     inkscape:current-layer="svg2" /><g
     display="none"
     id="g4"><g
       display="inline"
       id="g6"><path
         fill="#000000"
         stroke="#E00C02"
         stroke-width="4"
         stroke-miterlimit="10"
         d="M76,89c0,2.2-1.8,4-4,4H28c-2.2,0-4-1.8-4-4l0,0    c0-2.2,1.8-4,4-4h44C74.2,85,76,86.8,76,89L76,89z"
         id="path8" /></g><path
       display="inline"
       fill="#000000"
       stroke="#E00C02"
       stroke-width="4"
       stroke-miterlimit="10"
       d="M20,38c0-8.24,16-14.169,16-16"
       id="path10" /><path
       display="inline"
       fill="#000000"
       stroke="#E00C02"
       stroke-width="4"
       stroke-miterlimit="10"
       d="M76,34c0,9-12,24-12,45H36l-2-22   c7.18,0,13-5.82,13-13"
       id="path12" /><g
       display="inline"
       id="g14"><path
         fill="#000000"
         d="M71,82c0,1.65-1.35,3-3,3H32c-1.65,0-3-1.35-3-3l0,0c0-1.65,1.35-3,3-3h36C69.65,79,71,80.35,71,82L71,82z    "
         id="path16" /><path
         fill="#000000"
         stroke="#E00C02"
         stroke-width="4"
         stroke-miterlimit="10"
         d="M71,82c0,1.65-1.35,3-3,3H32c-1.65,0-3-1.35-3-3    l0,0c0-1.65,1.35-3,3-3h36C69.65,79,71,80.35,71,82L71,82z"
         id="path18" /></g><line
       display="inline"
       fill="#000000"
       stroke="#E00C02"
       stroke-width="4"
       stroke-miterlimit="10"
       x1="27"
       y1="45"
       x2="32"
       y2="41"
       id="line20" /><line
       display="inline"
       fill="#000000"
       stroke="#E00C02"
       stroke-width="4"
       stroke-miterlimit="10"
       x1="41"
       y1="24"
       x2="46"
       y2="21"
       id="line22" /><line
       display="inline"
       fill="#000000"
       stroke="#E00C02"
       stroke-width="4"
       stroke-miterlimit="10"
       x1="24"
       y1="39"
       x2="27"
       y2="37"
       id="line24" /><path
       display="inline"
       fill="#000000"
       stroke="#E00C02"
       stroke-width="4"
       stroke-miterlimit="10"
       d="M52,20V10   c13.255,0,24,10.745,24,24S65.255,58,52,58"
       id="path26" /><path
       display="inline"
       fill="#000000"
       stroke="#E00C02"
       stroke-width="4"
       stroke-miterlimit="10"
       d="M36,22c0-3.866,3.134-7,7-7h9"
       id="path28" /><path
       display="inline"
       fill="#000000"
       stroke="#E00C02"
       stroke-width="4"
       stroke-miterlimit="10"
       d="M20,38c0,3.866,3.134,7,7,7"
       id="path30" /><path
       display="inline"
       fill="#000000"
       stroke="#E00C02"
       stroke-width="4"
       stroke-miterlimit="10"
       d="M28,45c0,2.209,1.791,4,4,4   s4-1.791,4-4l7-3c2.539,2.539,6.654,2.539,9.192,0s2.539-6.654,0-9.192"
       id="path32" /></g><g
     id="g34"><path
       d="M72.878,83.072C72.954,82.726,73,82.369,73,82c0-2.757-2.243-5-5-5h-1.957c0.426-11.358,4.38-20.888,7.615-28.635   C76.398,44.246,78,39.307,78,34C78,19.664,66.336,8,52,8h-2v5h-7c-4.74,0-8.626,3.686-8.967,8.34   c-0.568,0.454-1.87,1.254-2.954,1.918C25.871,26.453,18,31.281,18,38c0,4.739,3.685,8.625,8.338,8.966   C27.154,49.311,29.381,51,32,51c2.831,0,5.21-1.971,5.838-4.612l4.819-2.065c0.695,0.497,1.451,0.869,2.235,1.131   C44.178,50.833,39.571,55,34,55h-2.19l2,22H32c-2.757,0-5,2.243-5,5c0,0.369,0.046,0.726,0.122,1.072C24.229,83.499,22,85.99,22,89   c0,3.309,2.691,6,6,6h44c3.309,0,6-2.691,6-6C78,85.99,75.771,83.499,72.878,83.072z M36.176,58.843   c6.657-0.972,11.896-6.335,12.704-13.044c1.731-0.262,3.397-1.054,4.727-2.385c1.605-1.605,2.49-3.74,2.49-6.01   s-0.884-4.405-2.49-6.01l-2.828,2.828c1.754,1.755,1.754,4.609,0,6.364c-1.755,1.754-4.609,1.754-6.364,0l-0.958-0.958L34,43.681   V45c0,1.103-0.897,2-2,2c-1.052,0-1.907-0.818-1.985-1.851l3.234-2.587l-2.499-3.123l-4.373,3.499C23.917,42.626,22,40.543,22,38   c0-4.48,6.993-8.77,11.171-11.332C36.487,24.634,38,23.706,38,22c0-2.757,2.243-5,5-5h7v3h4v-7.91C65.198,13.104,74,22.543,74,34   c0,12.131-9.869,22-22,22v4c5.367,0,10.36-1.635,14.506-4.433C64.25,61.81,62.313,68.913,62.035,77H37.827L36.176,58.843z M32,81   h36c0.542,0,1,0.458,1,1s-0.458,1-1,1H32c-0.542,0-1-0.458-1-1S31.458,81,32,81z M72,91H28c-1.103,0-2-0.897-2-2s0.897-2,2-2h44   c1.103,0,2,0.897,2,2S73.103,91,72,91z M44.971,19.285l2.058,3.43l-5,3l-2.058-3.43L44.971,19.285z M25.891,35.336l2.219,3.328   l-3,2l-2.219-3.328L25.891,35.336z"
       id="path36" /></g><path
     style="fill:#f4eed7"
     d="m 37.954369,75.826271 c -0.162223,-0.783606 -1.530905,-15.626203 -1.517677,-16.458352 0.0022,-0.137898 0.814367,-0.488093 1.804833,-0.778211 5.062876,-1.482966 8.979961,-5.548018 10.443357,-10.837853 0.403071,-1.457008 0.754055,-1.817398 2.522246,-2.589838 3.725751,-1.627607 5.833469,-5.886422 4.808969,-9.716912 -0.596322,-2.229581 -1.652898,-4.004427 -2.383859,-4.004427 -0.279171,0 -1.052194,0.568449 -1.717827,1.263221 -1.073908,1.120919 -1.154438,1.385696 -0.714869,2.350446 0.895406,1.965202 0.617,3.957014 -0.743219,5.317233 -1.572999,1.572999 -3.486818,1.63702 -5.619278,0.187976 l -1.54612,-1.050616 -4.69631,1.987504 c -3.576766,1.513705 -4.69631,2.174848 -4.69631,2.773387 0,2.225874 -2.436123,3.359647 -3.38983,1.577629 -0.24945,-0.466102 -0.303829,-0.855207 -0.120841,-0.864679 0.182988,-0.0095 0.973466,-0.565301 1.756619,-1.235179 l 1.423914,-1.217958 -1.21205,-1.519046 c -0.666627,-0.835475 -1.402727,-1.517201 -1.635778,-1.514945 -0.233051,0.0022 -1.260945,0.669622 -2.284208,1.483038 -1.023264,0.813416 -2.189286,1.478938 -2.591162,1.478938 -1.168556,0 -2.861553,-1.58481 -3.38396,-3.167718 -1.044823,-3.165844 1.746264,-6.574596 9.438563,-11.527311 5.368895,-3.456782 6.235609,-4.236552 6.237605,-5.611884 0.0024,-1.64766 1.532596,-3.821713 3.172051,-4.506721 0.883649,-0.369212 2.887587,-0.610095 5.075467,-0.610095 l 3.615305,0 0,1.483051 L 50,20 l 2.118644,0 2.118644,0 0,-3.860716 0,-3.860717 1.588983,0.269408 c 7.123825,1.207829 13.942831,6.98403 16.630839,14.087545 1.161276,3.068873 1.556733,8.38889 0.869411,11.696082 -1.883805,9.064362 -9.741915,16.304567 -18.665504,17.197792 l -2.754237,0.275691 -0.130069,2.282038 -0.130069,2.282038 2.551936,-0.288716 c 3.731329,-0.422153 7.128149,-1.395754 9.666651,-2.770665 1.230055,-0.666225 2.236466,-1.167721 2.236466,-1.114428 0,0.05329 -0.482195,1.512703 -1.071547,3.243144 -1.268229,3.723746 -2.576534,9.980707 -2.983622,14.269131 l -0.29162,3.072034 -11.801583,0 -11.801584,0 -0.19737,-0.95339 z m -11.113,-35.985662 c 0.735128,-0.507156 1.39855,-0.966355 1.474271,-1.020442 0.18361,-0.131152 -2.09782,-3.56593 -2.368543,-3.56593 -0.507762,0 -3.065741,1.801538 -3.065741,2.159146 0,0.598175 1.855869,3.338093 2.265097,3.344084 0.197075,0.0029 0.959787,-0.409701 1.694916,-0.916858 z m 19.33135,-16.469347 c 0.933022,-0.627092 0.945318,-0.705995 0.29715,-1.90678 -1.395113,-2.584559 -1.255434,-2.555042 -4.051937,-0.856255 -1.423083,0.864477 -2.587424,1.657098 -2.587424,1.761381 0,0.104283 0.48339,0.955344 1.074199,1.891246 l 1.074199,1.70164 1.610258,-0.968535 c 0.885642,-0.532694 2.048242,-1.262908 2.583555,-1.622697 z"
     id="path3370"
     inkscape:connector-curvature="0" /><path
     style="fill:#f4eed7"
     d="M 31.436598,81.970339 C 31.569991,81.277686 32.793462,81.228814 50,81.228814 c 17.206539,0 18.430009,0.04887 18.563402,0.741525 0.134264,0.697173 -0.976051,0.741525 -18.563402,0.741525 -17.587351,0 -18.697665,-0.04435 -18.563402,-0.741525 z"
     id="path3372"
     inkscape:connector-curvature="0" /><path
     style="fill:#f4eed7"
     d="m 26.783268,90.257844 c -0.680416,-0.680416 -0.649508,-1.819684 0.06547,-2.41306 0.417583,-0.346563 6.888993,-0.448954 23.364904,-0.36968 21.171875,0.101869 22.82051,0.162211 23.255031,0.851167 0.341081,0.540803 0.341081,0.942248 0,1.483051 -0.434555,0.689008 -2.086207,0.749283 -23.320499,0.851064 -17.421836,0.08351 -22.974517,-0.01216 -23.364902,-0.402542 z"
     id="path3374"
     inkscape:connector-curvature="0" /></svg>